Coordinates
version=1
nRows=14
nColumns=24
inDegrees=yes

Units are S.I. units (second, meters, Newtons, ...)
Angles are in degrees.

endheader
time	pelvis_tilt	pelvis_list	pelvis_rotation	pelvis_tx	pelvis_ty	pelvis_tz	hip_flexion_r	hip_adduction_r	hip_rotation_r	knee_angle_r	ankle_angle_r	subtalar_angle_r	mtp_angle_r	hip_flexion_l	hip_adduction_l	hip_rotation_l	knee_angle_l	ankle_angle_l	subtalar_angle_l	mtp_angle_l	lumbar_extension	lumbar_bending	lumbar_rotation
      1.19500000	      7.10687589	     -3.54779522	     -8.11205170	     -0.65595191	      0.97317940	      0.06540080	    -25.87199679	      1.24958621	    -14.64311511	     -8.43559603	     11.32901607	     19.11581739	      3.96551918	     18.29658573	     -8.23687839	    -33.95490613	     -9.64494747	     -3.24103296	      1.64768138	     13.17611444	    -10.55999769	     -7.10076159	    -14.21661435
      1.20000000	      7.11590976	     -3.51566740	     -8.28992970	     -0.64935682	      0.97220664	      0.06502281	    -26.15476591	      1.01594408	    -14.54485071	     -8.67472087	     11.37852431	     19.09192058	      4.03931529	     18.29808029	     -8.30932613	    -33.74369150	    -10.26578179	     -3.52179652	      1.09975482	     13.15419826	    -10.55855215	     -7.27540046	    -14.08836511
      1.20500000	      7.10378571	     -3.47945290	     -8.39906100	     -0.64276283	      0.97125824	      0.06453047	    -26.40734306	      0.80942947	    -14.50052735	     -8.91760835	     11.25701820	     18.98861782	      5.09085061	     18.34037065	     -8.35785043	    -33.41652742	    -10.89304480	     -4.04010958	      0.38708608	     13.95635034	    -10.54676225	     -7.44221959	    -14.02900232
      1.21000000	      7.07155595	     -3.38736147	     -8.57783440	     -0.63612926	      0.97040209	      0.06409612	    -26.59861574	      0.51298199	    -14.37137141	     -9.21864882	     11.22940104	     18.87663853	      5.16550418	     18.38257994	     -8.37598308	    -33.21940946	    -11.54295512	     -4.44378692	     -0.20335301	     13.91281724	    -10.48942767	     -7.67862713	    -13.89665290
      1.21500000	      7.05323820	     -3.30295537	     -8.70228597	     -0.62950860	      0.96964996	      0.06355830	    -26.79121744	      0.24219499	    -14.24914816	     -9.54732713	     11.18846681	     18.70292923	      5.28659156	     18.42392660	     -8.38494252	    -32.93772343	    -12.20807098	     -4.92132889	     -0.84984878	     13.90844450	    -10.46336359	     -7.89574688	    -13.80247782
      1.22000000	      7.03575125	     -3.21646397	     -8.78233652	     -0.62286206	      0.96898412	      0.06296853	    -26.97622245	     -0.00797747	    -14.14802585	     -9.85758414	     10.78499942	     18.38678055	      7.40603965	     18.47766592	     -8.38783889	    -32.62313987	    -12.88914662	     -5.57552233	     -1.56832475	     15.28550648	    -10.44159053	     -8.11378211	    -13.75278261
      1.22500000	      7.02073730	     -3.08308394	     -8.89894951	     -0.61619238	      0.96844884	      0.06236203	    -27.12368551	     -0.33444639	    -13.98855891	    -10.25102622	     10.66474660	     18.17253533	      7.48467307	     18.51320464	     -8.35023240	    -32.38299989	    -13.57906155	     -6.05625625	     -2.16030156	     15.19949432	    -10.41296100	     -8.37935903	    -13.65016974
      1.23000000	      7.00586456	     -2.98527250	     -8.95236868	     -0.60954975	      0.96800674	      0.06167414	    -27.25315973	     -0.59527484	    -13.81677198	    -10.68048625	     10.49412224	     17.83664111	      7.75915870	     18.57196744	     -8.33716858	    -32.04449763	    -14.30467153	     -6.54158761	     -2.81372768	     15.20252533	    -10.40359201	     -8.59912521	    -13.60839664
      1.23500000	      7.00405875	     -2.83703794	     -9.01884807	     -0.60281225	      0.96769839	      0.06098698	    -27.38101879	     -0.91412645	    -13.65681437	    -11.07839057	      9.80610656	     17.33830877	     10.76574847	     18.59676349	     -8.27633466	    -31.79713985	    -15.01379814	     -7.10409521	     -3.41390896	     16.21074149	    -10.39192816	     -8.87253790	    -13.51602696
      1.24000000	      6.99931321	     -2.68077437	     -9.07287549	     -0.59606879	      0.96749993	      0.06022255	    -27.46617487	     -1.24853727	    -13.46940002	    -11.58512315	      9.54193854	     17.02730530	     10.86437069	     18.62042551	     -8.19538817	    -31.53550463	    -15.72516781	     -7.52991607	     -3.97721147	     16.12468989	    -10.37991208	     -9.14520699	    -13.44793802
      1.24500000	      6.98505669	     -2.54858213	     -9.07927696	     -0.58927957	      0.96737587	      0.05944735	    -27.53794431	     -1.52405258	    -13.27932584	    -12.05682059	      8.81010356	     16.40242656	     13.47056147	     18.66687483	     -8.14329972	    -31.27855938	    -16.47762989	     -7.95534674	     -4.46438484	     16.50734133	    -10.36219199	     -9.38600778	    -13.41065442
      1.25000000	      7.00026873	     -2.38932254	     -9.08270059	     -0.58245053	      0.96738812	      0.05855833	    -27.59174663	     -1.85121458	    -13.13042389	    -12.65725802	      8.44212694	     16.03975519	     13.66665785	     18.65682414	     -8.02872244	    -31.01507329	    -17.18252864	     -8.28457665	     -5.01826398	     16.45874013	    -10.37311701	     -9.63935293	    -13.33232671
      1.25500000	      7.01672378	     -2.23887762	     -9.06934387	     -0.57557323	      0.96750002	      0.05768522	    -27.63518255	     -2.15589804	    -12.92976413	    -13.21704967	      7.52363717	     15.39618172	     16.74490113	     18.62658305	     -7.92110334	    -30.79058887	    -17.87074228	     -8.58470396	     -5.42361404	     16.84770972	    -10.38594063	     -9.88722836	    -13.28593292
      1.26000000	      7.02420868	     -2.09191871	     -9.01504959	     -0.56866728	      0.96770776	      0.05670323	    -27.62916397	     -2.44965274	    -12.77046354	    -13.89669568	      6.96644716	     14.99641310	     16.85006949	     18.59163754	     -7.78498353	    -30.53063677	    -18.51819150	     -8.85905061	     -5.84271934	     16.79273271	    -10.39456371	    -10.11025087	    -13.26376930
